<mxfile host="app.diagrams.net" agent="Mozilla/5.0 (Windows NT 10.0; Win64; x64) AppleWebKit/537.36 (KHTML, like Gecko) Chrome/131.0.0.0 Safari/537.36" version="26.0.11">
  <diagram name="第 1 页" id="m1aWo5boRgaScrbksMZL">
    <mxGraphModel dx="952" dy="623" grid="1" gridSize="10" guides="1" tooltips="1" connect="1" arrows="1" fold="1" page="1" pageScale="1" pageWidth="827" pageHeight="1169" math="1" shadow="0">
      <root>
        <mxCell id="0" />
        <mxCell id="1" parent="0" />
        <mxCell id="Wfq07vaS3QpHIXOTxXQo-4" value="$$W_{t-2}$$" style="shape=cube;whiteSpace=wrap;html=1;boundedLbl=1;backgroundOutline=1;darkOpacity=0.05;darkOpacity2=0.1;size=10;" vertex="1" parent="1">
          <mxGeometry x="100" y="140" width="70" height="40" as="geometry" />
        </mxCell>
        <mxCell id="Wfq07vaS3QpHIXOTxXQo-5" value="$$W_{t-1}$$" style="shape=cube;whiteSpace=wrap;html=1;boundedLbl=1;backgroundOutline=1;darkOpacity=0.05;darkOpacity2=0.1;size=10;" vertex="1" parent="1">
          <mxGeometry x="100" y="210" width="70" height="40" as="geometry" />
        </mxCell>
        <mxCell id="Wfq07vaS3QpHIXOTxXQo-6" value="$$W_{t-1}$$" style="shape=cube;whiteSpace=wrap;html=1;boundedLbl=1;backgroundOutline=1;darkOpacity=0.05;darkOpacity2=0.1;size=10;" vertex="1" parent="1">
          <mxGeometry x="100" y="280" width="70" height="40" as="geometry" />
        </mxCell>
        <mxCell id="Wfq07vaS3QpHIXOTxXQo-7" value="$$W_{t+1}$$" style="shape=cube;whiteSpace=wrap;html=1;boundedLbl=1;backgroundOutline=1;darkOpacity=0.05;darkOpacity2=0.1;size=10;" vertex="1" parent="1">
          <mxGeometry x="100" y="350" width="70" height="40" as="geometry" />
        </mxCell>
        <mxCell id="Wfq07vaS3QpHIXOTxXQo-8" value="$$W_{t+2}$$" style="shape=cube;whiteSpace=wrap;html=1;boundedLbl=1;backgroundOutline=1;darkOpacity=0.05;darkOpacity2=0.1;size=10;" vertex="1" parent="1">
          <mxGeometry x="100" y="420" width="70" height="40" as="geometry" />
        </mxCell>
        <mxCell id="Wfq07vaS3QpHIXOTxXQo-9" value="SUM" style="shape=cube;whiteSpace=wrap;html=1;boundedLbl=1;backgroundOutline=1;darkOpacity=0.05;darkOpacity2=0.1;size=10;" vertex="1" parent="1">
          <mxGeometry x="310" y="280" width="70" height="40" as="geometry" />
        </mxCell>
        <mxCell id="Wfq07vaS3QpHIXOTxXQo-10" value="$$W_t$$" style="shape=cube;whiteSpace=wrap;html=1;boundedLbl=1;backgroundOutline=1;darkOpacity=0.05;darkOpacity2=0.1;size=10;" vertex="1" parent="1">
          <mxGeometry x="520" y="280" width="70" height="40" as="geometry" />
        </mxCell>
      </root>
    </mxGraphModel>
  </diagram>
</mxfile>
